<svg width="20" height="21" viewBox="0 0 20 21" fill="none" xmlns="http://www.w3.org/2000/svg">
<path fill-rule="evenodd" clip-rule="evenodd" d="M12.293 5.79303C12.4805 5.60556 12.7348 5.50024 13 5.50024C13.2652 5.50024 13.5195 5.60556 13.707 5.79303L17.707 9.79303C17.8945 9.98056 17.9998 10.2349 17.9998 10.5C17.9998 10.7652 17.8945 11.0195 17.707 11.207L13.707 15.207C13.5184 15.3892 13.2658 15.49 13.0036 15.4877C12.7414 15.4854 12.4906 15.3803 12.3052 15.1948C12.1198 15.0094 12.0146 14.7586 12.0123 14.4964C12.01 14.2342 12.1108 13.9816 12.293 13.793L14.586 11.5H3C2.73478 11.5 2.48043 11.3947 2.29289 11.2071C2.10536 11.0196 2 10.7652 2 10.5C2 10.2348 2.10536 9.98046 2.29289 9.79292C2.48043 9.60539 2.73478 9.50003 3 9.50003H14.586L12.293 7.20703C12.1055 7.0195 12.0002 6.76519 12.0002 6.50003C12.0002 6.23487 12.1055 5.98056 12.293 5.79303Z" fill="white"/>
</svg>
