<svg width="38" height="38" viewBox="0 0 38 38" fill="none" xmlns="http://www.w3.org/2000/svg">
<path d="M30.2593 19C30.2593 25.2224 25.2224 30.2593 19 30.2593V19H30.2593ZM19 7.74074V19H7.74076C7.74076 12.7776 12.7776 7.74074 19 7.74074Z" fill="#0166B1"/>
<path d="M19 7.74074C25.2224 7.74074 30.2593 12.7776 30.2593 19H19V7.74074ZM7.74076 19H19V30.2593C12.7776 30.2593 7.74076 25.2224 7.74076 19Z" fill="white"/>
<path d="M19 7.74074L19 8.35807C24.8674 8.35807 29.6419 13.1315 29.6419 19L30.2593 19C30.2593 12.7821 25.218 7.74074 19 7.74074ZM19 29.6419C13.1326 29.6419 8.35807 24.8685 8.35807 19L7.74076 19C7.74076 25.2179 12.7821 30.2593 19 30.2593M19 0C8.50688 0 0 8.50688 0 19C0 29.4931 8.50688 38 19 38C29.4931 38 38 29.4931 38 19C38 8.50688 29.4931 0 19 0ZM36.7645 19C36.7645 28.8106 28.8117 36.7645 19 36.7645C9.18832 36.7645 1.23554 28.8106 1.23554 19C1.23554 9.18944 9.18944 1.23554 19 1.23554C28.8106 1.23554 36.7645 9.18944 36.7645 19Z" fill="#6F6F6F"/>
<path d="M10.8805 9.83401C11.4876 9.1989 11.8314 8.46514 11.2242 7.76463C10.8939 7.38445 10.3392 7.30132 9.87932 7.48864L9.83357 7.50638L9.84807 7.46648C9.91616 7.28581 9.95968 6.70944 9.46526 6.31152C9.22418 6.11756 8.92172 6.04551 8.61591 6.07654C8.04559 6.13418 7.60697 6.52101 6.41275 7.84333C6.05226 8.24235 5.52769 8.87192 5.21296 9.27981L8.49314 12.37C9.58021 11.1752 10.0233 10.7307 10.8805 9.83401ZM6.60026 9.07809C7.26098 8.27561 7.963 7.54739 8.28109 7.2592C8.38153 7.16832 8.49091 7.07743 8.62372 7.04196C8.83913 6.98321 9.06123 7.13506 9.11146 7.35453C9.16168 7.5751 9.02217 7.78459 8.86703 7.9575C8.5177 8.34876 7.23643 9.67995 7.23643 9.67995L6.60026 9.07809ZM7.88487 10.2885C7.88487 10.2885 9.13266 8.97833 9.54003 8.55936C9.70187 8.3931 9.80566 8.29223 9.91727 8.23792C10.0612 8.16809 10.2186 8.15368 10.3592 8.24679C10.4976 8.33878 10.5613 8.49728 10.5267 8.65468C10.4854 8.842 10.3313 9.02045 10.2041 9.15678C10.0322 9.33967 8.55229 10.9125 8.55006 10.9147L7.88487 10.2885ZM19.375 6.14859L20.4253 3.81209L20.4922 3.60482L20.4732 3.82095L20.5837 6.94331C20.952 6.97767 21.3326 7.02866 21.7076 7.09073L21.5369 2.46649C21.0123 2.40886 20.49 2.36784 19.9677 2.34568L18.933 4.8961L18.8962 5.08564L18.8594 4.8961L17.8259 2.34568C17.3036 2.36784 16.7812 2.40886 16.2567 2.46649L16.0859 7.09073C16.4609 7.02866 16.8415 6.97878 17.2098 6.94331L17.3203 3.82095L17.3013 3.60482L17.3683 3.81209L18.4185 6.14859H19.375ZM28.0972 10.9823C28.3551 11.2572 28.7267 11.7006 28.9354 11.9699L32.7792 9.54694C32.5873 9.29755 32.2815 8.91848 32.0527 8.65135L29.6185 10.2497L29.4522 10.3915L29.5761 10.212L30.6509 8.08164L29.8908 7.32682L27.7446 8.3942L27.5638 8.51724L27.7077 8.35208L29.3183 5.93578C29.0348 5.69636 28.7624 5.4769 28.4153 5.21089L25.9756 9.02488C26.2847 9.26097 26.6921 9.6079 26.9521 9.84399L29.2491 8.66022L29.3964 8.55271L29.2881 8.69901L28.0972 10.9823Z" fill="#6F6F6F"/>
</svg>
