<svg width="33" height="34" viewBox="0 0 33 34" fill="none" xmlns="http://www.w3.org/2000/svg">
<path d="M5.69995 8.7501C5.69995 8.5114 5.79477 8.28248 5.96355 8.1137C6.13234 7.94492 6.36126 7.8501 6.59995 7.8501H26.4C26.6386 7.8501 26.8676 7.94492 27.0363 8.1137C27.2051 8.28248 27.2999 8.5114 27.2999 8.7501C27.2999 8.98879 27.2051 9.21771 27.0363 9.38649C26.8676 9.55528 26.6386 9.6501 26.4 9.6501H6.59995C6.36126 9.6501 6.13234 9.55528 5.96356 9.38649C5.79477 9.21771 5.69995 8.98879 5.69995 8.7501ZM5.69995 17.0001C5.69995 16.7614 5.79477 16.5325 5.96355 16.3637C6.13234 16.1949 6.36126 16.1001 6.59995 16.1001H26.4C26.6386 16.1001 26.8676 16.1949 27.0363 16.3637C27.2051 16.5325 27.2999 16.7614 27.2999 17.0001C27.2999 17.2388 27.2051 17.4677 27.0363 17.6365C26.8676 17.8053 26.6386 17.9001 26.4 17.9001H6.59995C6.36126 17.9001 6.13234 17.8053 5.96355 17.6365C5.79477 17.4677 5.69995 17.2388 5.69995 17.0001ZM5.69995 25.2501C5.69995 25.0114 5.79477 24.7825 5.96355 24.6137C6.13234 24.4449 6.36126 24.3501 6.59995 24.3501H26.4C26.6386 24.3501 26.8676 24.4449 27.0363 24.6137C27.2051 24.7825 27.2999 25.0114 27.2999 25.2501C27.2999 25.4888 27.2051 25.7177 27.0363 25.8865C26.8676 26.0553 26.6386 26.1501 26.4 26.1501H6.59995C6.36126 26.1501 6.13234 26.0553 5.96355 25.8865C5.79477 25.7177 5.69995 25.4888 5.69995 25.2501Z" fill="white" stroke="white" stroke-width="1.5"/>
</svg>
