<svg width="96" height="32" viewBox="0 0 96 32" fill="none" xmlns="http://www.w3.org/2000/svg">
<path d="M36.8651 27.407C33.2929 25.1071 28.445 24.7035 20.6267 26.8715C12.2918 28.8291 9.51287 30.084 5.86331 27.5648C4.46123 26.3273 3.95855 24.3348 4.33391 21.4647C5.20451 16.7859 7.55723 12.2833 11.7362 7.28884C14.0689 4.69074 16.2326 2.46109 19.0898 1.56576C21.2796 1.00409 21.0749 2.72412 20.8099 2.97011C20.5303 2.97011 20.0606 3.01413 19.6976 3.25089C19.403 3.47925 18.5944 4.21663 18.5509 5.20852C18.4883 6.72693 20.0605 6.41089 20.7386 5.5772C21.4696 4.63773 22.5498 2.83866 21.7001 1.16193C21.3439 0.565114 20.7286 0.152648 19.9645 0.0122001C17.3483 -0.137243 14.9117 1.10927 12.663 2.48736C7.74515 5.90188 3.81119 10.6332 1.58519 15.8121C0.301791 18.9369 -0.85885 23.4129 0.880911 27.0561C2.22671 29.5839 5.02079 30.9266 8.35427 30.6458C10.6922 30.4003 13.5193 29.6451 15.4207 29.189C17.3221 28.7323 27.0552 25.3883 30.2532 31.2083C30.2532 31.2083 31.3166 29.145 33.9743 29.101C36.1592 28.8995 39.3113 29.7332 41.6068 31.4182C40.842 30.2687 38.6738 28.5746 36.8651 27.407Z" fill="#E61D2A"/>
<path d="M21.6192 7.87688C19.7988 6.68313 16.14 8.96531 13.2094 12.88C10.5296 16.3914 9.37244 20.4725 10.6317 22.3598C12.505 24.5804 15.9826 21.3504 17.4615 19.6214L17.6523 19.4194C18.658 18.3397 19.435 17.0405 20.1871 15.794C20.1871 15.794 20.8783 14.6529 20.9113 14.6001C21.3385 14.5214 21.8531 14.3985 22.4329 14.2317C22.4246 14.2578 20.2144 17.9709 20.4399 19.8138C20.5101 20.3761 20.4565 22.43 22.4629 23.0531C25.137 23.5011 27.2723 21.4293 29.156 19.5859C29.156 19.5859 29.477 19.279 29.6586 19.1038C29.6126 19.2877 29.5527 19.5329 29.5527 19.5329C28.7699 22.2541 29.8251 22.825 30.4853 23.0357C32.4803 23.6154 34.8636 20.7185 34.8713 20.7185C34.8095 21.631 34.6287 22.3859 35.5911 22.9916C36.4995 23.3166 37.4189 22.8212 38.1176 22.3559C40.6346 20.5829 42.6624 17.8079 44.3003 15.4091H43.2555C43.2432 15.4091 40.6776 19.1257 39.0116 19.9335C39.009 19.9335 38.7059 20.0891 38.5311 19.966C38.3149 19.7816 38.4002 19.3982 38.5338 19.1267C38.5422 19.109 44.9661 7.97295 44.9661 7.97295H41.933C41.933 7.97295 41.6017 8.50871 41.5747 8.54385C41.5543 8.52634 41.5057 8.43423 41.472 8.39009C39.5928 5.79199 35.3372 9.78833 32.1333 14.4227C30.8999 16.2048 29.3294 18.2112 27.701 19.6595C27.701 19.6595 25.2887 21.8697 24.2579 20.2817C23.8811 19.6145 23.997 18.639 24.2095 17.9984C25.4096 14.5839 27.4776 11.4851 29.8308 9.61526C30.4951 9.09773 31.2171 8.94804 31.5755 9.16753C31.9169 9.36975 31.9719 9.86965 31.7559 10.2121C31.2079 10.1946 30.7688 10.361 30.4118 10.7297C29.7086 11.4671 29.4643 12.1782 29.6879 12.8454C30.774 14.3902 32.9401 11.3355 32.8353 9.47469C32.7979 8.80748 32.4417 8.17564 31.9103 7.86812C31.1181 7.39437 29.9097 7.51706 29.1277 7.89475C28.0808 8.28958 26.4236 9.66755 25.4563 10.7386C24.2385 12.0818 22.1501 13.5738 21.4969 13.4067C21.7109 12.836 23.475 9.22846 21.6192 7.87688ZM36.2425 13.2136C36.8325 12.3975 38.5499 10.2117 38.9685 9.84314C40.3766 8.60502 40.9394 9.14978 40.9881 9.53574C39.674 11.8881 38.123 14.583 36.6648 17.0057C36.6678 16.9971 36.2084 17.6991 36.2084 17.6991C35.5644 18.682 34.9159 19.5247 33.8581 20.1127C33.7073 20.1569 33.4586 20.1745 33.2931 20.0512C33.0939 19.9195 33.0153 19.7 33.0378 19.4716C33.1011 18.717 33.87 16.4089 36.2425 13.2136ZM19.7419 14.6267C19.7419 14.6267 19.7155 14.706 19.7024 14.7319C19.699 14.7319 18.38 16.8822 18.38 16.8822C17.5839 17.9445 16.59 19.279 15.3475 19.9195C14.9792 20.0424 14.4702 20.1216 14.2107 19.797C13.6608 19.1386 13.9442 18.2257 14.1745 17.4885L14.256 17.2251C14.9162 15.4347 15.9638 13.8543 16.9834 12.3885C16.9962 12.3798 17.0247 12.3711 17.035 12.3711C17.0374 12.3798 17.0415 12.3798 17.0433 12.3975C17.6832 13.6261 18.8829 14.1964 19.7802 14.4602C19.7856 14.4602 19.7913 14.4689 19.7913 14.4865C19.7914 14.5127 19.7768 14.5481 19.7419 14.6267ZM20.9916 12.0903C20.9858 12.1078 20.404 13.4419 20.404 13.4419C20.3199 13.512 20.187 13.477 20.0346 13.4419L19.7735 13.3977C18.9535 13.1434 18.335 12.5991 18.1443 11.9496C17.8813 10.6856 18.9617 9.6937 19.4377 9.334C19.8944 9.01773 20.6044 8.85101 21.0168 9.17593C21.271 9.47445 21.3674 9.86053 21.3674 10.2821C21.3675 10.8525 21.1914 11.4932 20.9916 12.0903Z" fill="#E61D2A"/>
<path d="M59.3364 16.1628C59.0439 15.531 58.3496 15.1271 57.6097 15.1709C55.2069 15.3905 52.8567 17.3654 51.6228 20.2004C50.9753 21.6576 50.6219 22.86 50.3901 24.7735C51.1373 23.9136 52.6613 22.5005 54.3907 21.7279C54.3907 21.7279 54.626 19.8935 55.826 18.2608C56.2801 17.5847 57.1889 16.4964 58.2092 16.7859C59.1007 17.0845 58.7874 19.5511 57.6025 21.9381C56.7258 23.6938 55.3842 25.4498 54.0267 26.6609C52.8266 27.6791 51.051 28.9079 49.4975 27.96C48.519 27.381 48.0199 26.1694 48.1254 24.6069C48.5929 20.1744 50.6117 16.3999 53.5007 12.0989C56.4795 8.10513 59.7632 4.00601 64.1868 1.82002C65.0891 1.36365 65.9246 1.25835 66.6469 1.53924C66.6469 1.53924 62.4944 3.82142 60.515 8.0436C60.0115 9.11465 59.3112 10.5625 60.0164 11.8442C60.3849 12.5112 61.0393 12.5639 61.5661 12.5288C63.9924 11.9669 65.5599 9.70234 66.8407 7.63101C67.5833 6.05983 68.2433 4.49739 68.2433 2.75937C68.2433 2.54876 68.2323 2.26799 68.2145 2.05713C69.3737 1.44293 71.7506 2.53113 71.7506 2.53113C73.6081 3.14581 77.5632 6.17425 78.8973 6.75331C79.5481 5.99854 80.6175 4.85757 81.2197 4.2869L80.348 3.75138C78.9524 2.89994 77.4773 2.09228 76.0253 1.29361C72.7278 -0.505581 70.0437 0.126252 68.6777 0.617878C68.1408 0.810858 67.6501 0.977692 67.6501 0.977692C66.6363 -0.128256 64.9737 -0.0231906 63.7487 0.275455C59.343 1.53936 55.2525 4.62021 50.8671 9.96597C47.643 14.153 45.6431 17.7695 44.5771 21.3419C43.7555 23.7467 43.5057 27.2842 45.5112 29.3821C47.2163 31.1635 49.4772 30.7776 51.0738 30.137C54.533 28.4341 57.6421 24.7649 59.1913 20.5428C59.5651 19.2878 59.9801 17.5147 59.3364 16.1628ZM67.2907 2.93508C66.8328 8.18417 62.7505 11.2654 61.7405 11.5108C61.1283 11.6335 60.0839 11.3616 61.0163 9.15867C62.3894 6.19152 64.7337 3.67258 67.2491 2.38217C67.3103 2.60165 67.3087 2.74174 67.2907 2.93508Z" fill="#E61D2A"/>
<path d="M91.5066 3.60194C89.3107 4.84858 87.0344 5.65588 84.2789 5.3751C83.5152 6.23554 82.7717 7.122 82.0864 8.03473C85.9538 9.01786 90.054 6.83223 92.3406 4.75215C94.7596 2.65419 96 0.0123153 96 0.0123153C96 0.0123153 94.1868 2.08365 91.5066 3.60194Z" fill="#E61D2A"/>
<path d="M48.3821 10.6117L50.0075 7.97306H47.127L45.5022 10.6117H48.3821Z" fill="#E61D2A"/>
<path d="M84.2674 27.6513C83.9576 27.8619 83.5225 27.7 83.6852 27.2174C84.0905 25.9885 85.7016 23.4842 85.7016 23.4842L90.1891 15.5292H87.1152C86.9692 15.769 86.6567 16.3199 86.6567 16.3199C86.5145 16.0831 86.0892 15.5566 85.9141 15.4429C85.1632 14.9686 84.0613 15.1928 83.3012 15.6228C79.9966 17.5542 77.5854 21.37 75.6839 24.3458C75.6839 24.3458 73.6822 27.6537 72.571 27.8997C71.7035 27.97 71.793 26.802 71.8306 26.5299C72.166 24.5634 72.9449 22.6939 73.7297 20.9998C75.3258 19.8938 77.1474 18.4456 78.8028 16.8569C82.3954 13.4245 85.424 9.53597 85.8667 8.66702C85.8667 8.66702 85.3876 8.76369 84.8218 8.78108C82.0579 12.6344 76.4021 18.2348 74.6874 19.0685C75.447 17.2425 80.3546 8.52645 84.531 4.35717L85.1882 3.72497C86.2044 2.73308 87.2574 1.71493 88.078 1.5481C88.1646 1.53934 88.2762 1.5481 88.3726 1.75031C88.4092 2.52259 88.1215 3.09326 87.7915 3.74272L87.329 4.69083C87.329 4.69083 87.9841 4.5679 88.4143 4.42709C88.9135 3.48834 89.4664 2.43468 89.2626 1.17977C89.1946 0.775937 88.9021 0.468775 88.5199 0.398492C87.2741 0.161494 85.9163 1.08286 84.8238 1.82923L84.7796 1.85538C79.1635 6.25303 74.4211 12.5906 70.275 21.2454C69.9745 21.4733 68.8135 21.7457 68.6161 21.6138C69.0256 20.7714 69.5411 19.6388 69.7991 18.4099C69.8437 18.0588 69.8852 17.6991 69.8852 17.348C69.8852 16.5925 69.7038 15.8818 69.0266 15.3904C68.2327 14.9953 67.2515 15.1798 66.5899 15.4781C63.6262 16.7069 61.4111 19.7443 59.8127 22.2456C58.953 23.8347 58.0958 25.5368 57.8585 27.4858C57.6913 29.0128 58.0316 29.996 58.9003 30.4877C59.7937 30.9438 60.9181 30.4697 61.3598 30.2417C64.3624 28.6618 66.4602 25.4932 68.1139 22.5964C68.1797 22.5877 69.0826 22.5616 69.7655 22.3858C69.7746 22.3858 69.7784 22.3858 69.7936 22.395C69.7544 22.5261 69.4015 23.5798 69.4015 23.5798C68.3534 26.6517 67.8688 28.741 68.8588 29.9784C70.2734 31.7253 72.6155 29.9173 74.5207 27.5293C74.1118 30.3908 75.5956 30.8386 76.7266 30.6194C78.0258 30.2685 79.4736 28.8813 80.1455 28.1705C79.9297 29.0042 79.9884 30.4966 81.1703 30.6457C81.9804 30.7953 82.5866 30.3549 83.2882 29.9774C85.8044 28.6079 88.8166 24.0446 89.5986 22.7253H88.5732C87.4615 24.4046 86.0469 26.6063 84.2674 27.6513ZM61.6812 27.3457C61.5216 27.1087 61.4687 26.8495 61.4634 26.5693C61.4328 24.8482 63.2855 21.7659 64.5932 20.0868C64.596 20.0868 64.596 20.0868 64.596 20.0868C65.144 21.2862 66.3851 22.0571 67.1342 22.3821C66.2038 24.4537 63.0126 28.8905 61.6812 27.3457ZM67.6594 21.4559C67.5707 21.5177 66.0058 20.9908 65.7034 19.5425C65.4468 18.2956 66.3059 17.3214 67.137 16.8302C67.4938 16.5492 68.0311 16.4529 68.4253 16.5928C68.7912 16.8389 68.8903 17.2781 68.8903 17.7514C68.8903 18.0416 68.8518 18.3398 68.8178 18.6118C68.8178 18.6118 68.8114 18.6647 68.8103 18.6735C68.5495 19.6475 68.1505 20.6043 67.6594 21.4559ZM80.2109 26.7928C80.2096 26.7928 79.914 27.056 79.914 27.056C79.4918 27.4332 79.0574 27.8371 78.533 27.6351C78.3882 27.5824 78.2863 27.3896 78.2618 27.2399C78.238 26.1602 78.7244 25.1598 79.1962 24.1857L79.3171 23.9309C80.6741 21.6664 82.2514 18.998 84.5678 17.1462C84.9582 16.8647 85.3818 16.6281 85.8289 16.8126C85.9318 16.9089 86.0515 17.0759 86.0515 17.2425C86.0515 17.2954 86.0046 17.4357 85.9775 17.4793C85.3306 18.5244 84.7144 19.6214 84.1152 20.6746C82.9442 22.7551 81.7295 24.9053 80.2109 26.7928Z" fill="#E61D2A"/>
</svg>
