<svg width="71" height="32" viewBox="0 0 71 32" fill="none" xmlns="http://www.w3.org/2000/svg">
<g clip-path="url(#clip0_292_167)">
<path d="M61.7524 14.029C60.5597 14.3043 57.4097 14.4572 57.4097 14.4572L57.0223 15.7009C57.0223 15.7009 58.582 15.5683 59.7238 15.6805C59.7238 15.6805 60.0908 15.6499 60.1316 16.0882C60.1519 16.5368 60.101 17.0057 60.101 17.0057C60.101 17.0057 60.0704 17.281 59.6932 17.3523C59.2549 17.4237 56.2985 17.5562 56.2985 17.5562L55.8194 19.1669C55.8194 19.1669 55.6461 19.5339 56.0437 19.4319C56.4107 19.33 59.5097 18.7387 59.9175 18.8203C60.3456 18.9222 60.835 19.5135 60.6922 20.0436C60.5291 20.6858 57.4301 22.6635 55.5544 22.531C55.5544 22.531 54.5655 22.5921 53.7398 21.2567C52.9447 19.9824 54.0151 17.5868 54.0151 17.5868C54.0151 17.5868 53.5359 16.4654 53.8927 16.0577C53.8927 16.0577 54.0966 15.8844 54.7083 15.8334L55.4728 14.2635C55.4728 14.2635 54.6063 14.3145 54.0966 13.6824C53.6277 13.0708 53.5869 12.8057 53.9539 12.6426C54.3413 12.4387 57.9296 11.7965 60.3966 11.878C60.3966 11.878 61.2631 11.7761 62.0277 13.2746C62.0277 13.2746 62.3743 13.8863 61.7626 14.029M52.4553 20.064C52.1495 20.8081 51.3034 21.5931 50.284 21.114C49.2442 20.6246 47.6029 17.281 47.6029 17.281C47.6029 17.281 46.9913 16.0373 46.8689 16.078C46.8689 16.078 46.7364 15.8334 46.6651 17.1994C46.5631 18.5552 46.6854 21.1955 46.1248 21.6135C45.6151 22.0212 45.0034 21.8479 44.6568 21.3688C44.3714 20.8897 44.249 19.7377 44.4122 17.7295C44.5956 15.7212 45.0544 13.5805 45.6355 12.9178C46.2471 12.245 46.7364 12.7344 46.9199 12.9178C46.9199 12.9178 47.7049 13.6314 49.0301 15.7416L49.2544 16.129C49.2544 16.129 50.4573 18.1373 50.5796 18.1271C50.5796 18.1271 50.6816 18.229 50.7631 18.1475C50.8854 18.1169 50.8447 17.4644 50.8447 17.4644C50.8447 17.4644 50.6204 15.2931 49.499 11.6232C49.499 11.6232 49.3359 11.1543 49.4481 10.7057C49.55 10.2979 49.9884 10.5018 49.9884 10.5018C49.9884 10.5018 51.6806 11.3174 52.5063 14.0698C53.3219 16.8222 52.7714 19.3198 52.4655 20.064M44.1573 12.9994C43.9942 13.2848 43.9228 13.6824 43.2194 13.7945C43.2194 13.7945 36.3893 14.2737 36.0529 14.7528C36.0529 14.7528 35.8287 15.0382 36.1957 15.1096C36.583 15.1911 38.1325 15.395 38.8665 15.4358C39.6617 15.4358 42.3325 15.4562 43.3112 16.6591C43.3112 16.6591 43.8719 17.23 43.8515 18.5246C43.8311 19.8499 43.5966 20.3188 43.0767 20.7979C42.5364 21.2465 37.9083 23.3261 34.9214 20.1455C34.9214 20.1455 33.5554 18.6164 35.4005 17.4543C35.4005 17.4543 36.7257 16.6387 40.1204 17.5868C40.1204 17.5868 41.1398 17.9538 41.099 18.331C41.0379 18.7387 40.2529 19.1465 39.1112 19.1261C38.0102 19.0955 37.1947 18.5654 37.3578 18.6572C37.5107 18.7081 36.1651 18.0047 35.7471 18.4839C35.3393 18.9324 35.4413 19.1975 35.8491 19.4727C36.8685 20.064 40.8748 19.8499 42.0675 18.5144C42.0675 18.5144 42.5466 17.9742 41.8228 17.5358C41.1092 17.128 39.0296 16.8732 38.2243 16.8426C37.4597 16.8018 34.5952 16.8426 34.167 16.0984C34.167 16.0984 33.7592 15.5683 34.2078 14.1208C34.6767 12.5916 38.0102 12.0004 39.4578 11.878C39.4578 11.878 43.4335 11.7149 44.1777 12.5305C44.1777 12.5305 44.2796 12.714 44.1573 12.9892M32.8825 21.9601C32.4034 22.3169 31.384 22.164 31.0884 21.7562C30.8029 21.3994 30.701 19.9926 30.752 17.7805C30.8233 15.5174 30.8539 12.7445 31.3636 12.296C31.8733 11.8577 32.1791 12.245 32.383 12.5407C32.5869 12.8465 32.852 13.1829 32.8927 13.8863C32.9539 14.5999 33.1272 18.2698 33.1272 18.2698C33.1272 18.2698 33.3515 21.6135 32.8927 21.9601M33.902 10.0329C32.4952 10.512 31.5369 10.3591 30.7214 10.0023C30.3646 10.6445 30.1505 10.8382 29.8855 10.879C29.4777 10.9198 29.1209 10.2674 29.0699 10.0635C28.9884 9.91057 28.7947 9.63533 29.0292 9.01348C28.234 8.29989 28.1728 7.34164 28.3156 6.69941C28.4991 5.94504 29.8447 3.11106 33.9224 2.77465C33.9224 2.77465 35.9204 2.63193 36.267 3.69213H36.3282C36.3282 3.69213 38.2651 3.69213 38.2243 5.42513C38.2243 7.15814 36.0835 9.31931 33.902 10.0635M35.7165 5.09892C34.4321 5.3028 32.4544 7.01542 31.5063 8.43241C32.9641 8.69746 35.5126 8.59552 36.6544 6.29164C36.6544 6.29164 37.1947 4.84407 35.7165 5.09892ZM30.0792 6.22028C29.6714 6.8829 29.651 7.28047 29.8447 7.54552C30.3238 6.83193 31.1699 5.71057 32.4442 4.83387C31.4656 4.93581 30.6398 5.34358 30.0792 6.22028ZM64.8107 21.8887C63.8728 24.1926 63.0777 26.5271 62.6189 30.0237C62.6189 30.0237 62.517 30.7067 61.9563 30.4824C61.3956 30.2785 60.4782 29.361 60.2743 28.0664C60.0704 26.3742 60.8248 23.5198 62.3641 20.2373C61.9155 19.5237 61.5995 18.4635 61.8544 16.9751C61.8544 16.9751 62.2621 14.2227 65.0146 11.7353C65.0146 11.7353 65.3408 11.4601 65.5243 11.5518C65.7485 11.6538 65.6568 12.5305 65.4733 12.979C65.3102 13.4072 64.0869 15.5276 64.0869 15.5276C64.0869 15.5276 63.3223 16.9751 63.5364 18.1067C64.984 15.8844 68.2767 11.3785 70.3155 12.8057C71.6102 13.7232 71.6102 16.6795 70.6417 18.3921C69.8772 19.7479 67.716 22.5513 64.8311 21.8989M69.0718 14.9669C68.3175 15.7824 66.9718 17.3319 65.9117 19.4319C67.033 19.3096 68.1238 18.6877 68.4602 18.3717C69.0005 17.8926 70.2442 16.5979 70.0505 14.8853C70.0505 14.8853 69.9282 13.9882 69.0718 14.9669ZM23.402 23.0916C19.7932 24.1926 16.3884 23.6829 14.533 23.1936C14.4821 23.9479 14.4005 24.264 14.2782 24.3863C14.1355 24.5494 12.9529 25.2222 12.3005 24.264C12.0151 23.8052 11.8724 22.9795 11.7908 22.2251C7.61121 20.329 5.67431 17.5358 5.61315 17.4339C5.51121 17.3319 4.56315 16.3431 5.51121 15.1198C6.3981 14.0188 9.33402 12.9077 11.9641 12.4693C12.0661 10.2266 12.3107 8.49358 12.6267 7.72902C13.0039 6.81154 13.483 7.62708 13.9112 8.23873C14.2578 8.69746 14.4719 10.6649 14.4923 12.2348C16.2049 12.1533 17.2447 12.2756 19.151 12.6426C21.6588 13.0708 23.3306 14.3552 23.1981 15.8028C23.0758 17.23 21.7709 17.8212 21.2612 17.862C20.7515 17.9028 19.936 17.5256 19.936 17.5256C19.3651 17.2606 19.885 17.0159 20.5476 16.7305C21.2816 16.3737 21.1185 16.0169 21.1185 16.0169C20.8534 15.2013 17.6015 14.6611 14.3699 14.6611C14.3699 16.445 14.4413 19.4013 14.4923 21.1242C16.7554 21.5523 18.4476 21.4606 18.4476 21.4606C18.4476 21.4606 26.7049 21.2261 26.9393 15.9557C27.1942 10.6751 18.6821 5.61882 12.4127 4.02853C6.15344 2.38727 2.60587 3.54941 2.30004 3.70232C1.96364 3.86543 2.26946 3.92659 2.26946 3.92659C2.26946 3.92659 2.60587 3.97756 3.21752 4.18145C3.82917 4.38533 3.33985 4.69115 3.33985 4.69115C2.26946 5.05814 1.07674 4.84407 0.842279 4.35475C0.607813 3.87562 0.995191 3.43727 1.45393 2.79504C1.88208 2.13242 2.3714 2.15281 2.3714 2.15281C10.119 -0.548649 19.5792 4.29358 19.5792 4.29358C28.4277 8.75863 29.9364 14.0086 29.7733 16.0475C29.6306 18.0557 28.8559 21.4504 23.402 23.1018M6.37771 15.8028C5.50101 16.2106 6.11266 16.863 6.11266 16.863C7.76412 18.6266 9.78256 19.7377 11.7195 20.431C11.9437 17.3727 11.9233 16.2819 11.9233 14.7426C8.92625 14.9465 7.19325 15.4358 6.37771 15.8028Z" fill="white"/>
</g>
<defs>
<clipPath id="clip0_292_167">
<rect width="70.6667" height="32" fill="white" transform="translate(0.333252)"/>
</clipPath>
</defs>
</svg>
