<svg width="16" height="16" viewBox="0 0 16 16" fill="none" xmlns="http://www.w3.org/2000/svg">
<path d="M8.79992 2.39999C8.58775 2.39999 8.38426 2.48428 8.23423 2.63431C8.0842 2.78434 7.99992 2.98782 7.99992 3.19999C7.99992 3.41217 8.0842 3.61565 8.23423 3.76568C8.38426 3.91571 8.58775 3.99999 8.79992 3.99999H10.8687L5.83432 9.03439C5.75791 9.10819 5.69696 9.19647 5.65504 9.29407C5.61311 9.39167 5.59104 9.49665 5.59012 9.60287C5.5892 9.7091 5.60944 9.81444 5.64966 9.91276C5.68989 10.0111 5.74929 10.1004 5.8244 10.1755C5.89952 10.2506 5.98884 10.31 6.08716 10.3503C6.18547 10.3905 6.29082 10.4107 6.39704 10.4098C6.50326 10.4089 6.60824 10.3868 6.70584 10.3449C6.80345 10.3029 6.89172 10.242 6.96552 10.1656L11.9999 5.13119V7.19999C11.9999 7.41217 12.0842 7.61565 12.2342 7.76568C12.3843 7.91571 12.5877 7.99999 12.7999 7.99999C13.0121 7.99999 13.2156 7.91571 13.3656 7.76568C13.5156 7.61565 13.5999 7.41217 13.5999 7.19999V3.19999C13.5999 2.98782 13.5156 2.78434 13.3656 2.63431C13.2156 2.48428 13.0121 2.39999 12.7999 2.39999H8.79992Z" fill="#9CA3AF"/>
<path d="M3.9999 4C3.57556 4 3.16859 4.16857 2.86853 4.46863C2.56847 4.76869 2.3999 5.17565 2.3999 5.6V12C2.3999 12.4243 2.56847 12.8313 2.86853 13.1314C3.16859 13.4314 3.57556 13.6 3.9999 13.6H10.3999C10.8242 13.6 11.2312 13.4314 11.5313 13.1314C11.8313 12.8313 11.9999 12.4243 11.9999 12V9.6C11.9999 9.38783 11.9156 9.18434 11.7656 9.03431C11.6156 8.88429 11.4121 8.8 11.1999 8.8C10.9877 8.8 10.7842 8.88429 10.6342 9.03431C10.4842 9.18434 10.3999 9.38783 10.3999 9.6V12H3.9999V5.6H6.3999C6.61208 5.6 6.81556 5.51571 6.96559 5.36569C7.11562 5.21566 7.1999 5.01217 7.1999 4.8C7.1999 4.58783 7.11562 4.38434 6.96559 4.23431C6.81556 4.08429 6.61208 4 6.3999 4H3.9999Z" fill="#9CA3AF"/>
</svg>
