<svg width="75" height="32" viewBox="0 0 75 32" fill="none" xmlns="http://www.w3.org/2000/svg">
<g clip-path="url(#clip0_292_163)">
<path fill-rule="evenodd" clip-rule="evenodd" d="M61.5535 25.297L58.7893 22.1923L56.0451 25.297H50.2763L55.9182 18.9607L50.2763 12.6244H56.2254L59.0163 15.7025L61.707 12.6244H67.4491L61.8339 18.934L67.5292 25.297H61.5535ZM39.1995 25.297V5.33337H50.2763V9.7868H43.8933V12.6244H50.2763V16.9043H43.8933V20.8302H50.2763V25.297H39.1995Z" fill="#FF6600"/>
<path fill-rule="evenodd" clip-rule="evenodd" d="M34.5258 5.33337V13.5058H34.4723C33.5114 12.4116 32.1004 11.8206 30.6465 11.9034C27.7216 11.9291 25.1793 13.9179 24.4505 16.7507C23.5224 13.7061 21.1121 11.8433 17.5934 11.8433C14.7157 11.8433 12.4456 13.1319 11.2571 15.2418V12.6244H5.30138V9.78013H11.7912V5.33337H0V25.297H5.30138V16.9043H10.5827C10.4179 17.559 10.3371 18.2321 10.3424 18.9073C10.3424 23.0736 13.5205 25.9914 17.5867 25.9914C20.9986 25.9914 23.2486 24.389 24.4371 21.4645H19.8969C19.4356 22.2848 18.5185 22.7381 17.5867 22.6063C16.1072 22.5737 14.9229 21.3686 14.916 19.8888H24.1834C24.584 23.2272 27.1612 26.0448 30.6933 26.0448C32.2065 26.0496 33.622 25.298 34.4657 24.0418H34.5191V25.297H39.1928V5.33337H34.5258ZM15.0762 16.9644C15.2979 15.7542 16.3498 14.8734 17.58 14.8679C18.8398 14.8041 19.9389 15.7148 20.1105 16.9644H15.0762ZM31.6814 22.2591C29.9588 22.2591 28.8905 20.6566 28.8905 18.9741C28.8905 17.1847 29.8253 15.4621 31.6814 15.4621C33.5376 15.4621 34.3522 17.1847 34.3522 18.9741C34.3522 20.7635 33.571 22.2591 31.6881 22.2591H31.6814Z" fill="#4D148C"/>
<path fill-rule="evenodd" clip-rule="evenodd" d="M74.2127 22.9134C74.1834 21.8441 73.298 20.9981 72.2284 21.0175C71.1589 21.0369 70.3047 21.9145 70.3142 22.9841C70.3237 24.0538 71.1934 24.916 72.2631 24.9165C72.793 24.9282 73.3041 24.7191 73.6738 24.3393C74.0436 23.9594 74.2388 23.4429 74.2127 22.9134ZM71.7556 23.0136V24.3489H71.335V21.4378H72.3832C72.9975 21.4378 73.2779 21.7049 73.2779 22.2324C73.2888 22.5338 73.0746 22.7966 72.7772 22.8466C73.0175 22.8867 73.111 23.1004 73.1644 23.5143C73.1828 23.7913 73.2436 24.0637 73.3447 24.3222H72.8439C72.762 24.001 72.6974 23.6756 72.6503 23.3474C72.6065 23.1216 72.3893 22.9728 72.1629 23.0136H71.7556ZM72.2831 22.6397C72.6904 22.6397 72.8106 22.4193 72.8106 22.2324C72.8106 22.0454 72.6971 21.8251 72.2831 21.8251H71.7556V22.6463H72.2831V22.6397ZM69.8594 22.9067C69.8486 21.9295 70.4289 21.0424 71.3287 20.6609C72.2285 20.2794 73.2695 20.479 73.9644 21.1662C74.6593 21.8534 74.8705 22.8922 74.499 23.7961C74.1276 24.7001 73.247 25.2903 72.2697 25.2904C71.6308 25.3049 71.0133 25.0593 70.5589 24.6099C70.1045 24.1605 69.852 23.5458 69.8594 22.9067Z" fill="#FF6600"/>
</g>
<defs>
<clipPath id="clip0_292_163">
<rect width="74.6667" height="32" fill="white"/>
</clipPath>
</defs>
</svg>
