<svg width="58" height="32" viewBox="0 0 58 32" fill="none" xmlns="http://www.w3.org/2000/svg">
<g clip-path="url(#clip0_292_161)">
<path d="M5.11469 4.97689H0.9646V9.12699H5.11469V4.97689Z" fill="#00C7FD"/>
<path d="M5.01131 26.5988V11.6525H1.08275V26.5988H5.01131ZM31.1229 26.7464V23.0837C30.5469 23.0837 30.0596 23.0542 29.7051 22.9951C29.2916 22.936 28.9814 22.7883 28.7747 22.5816C28.5679 22.3748 28.435 22.0794 28.3611 21.6954C28.3021 21.3262 28.2725 20.8388 28.2725 20.2481V15.0198H31.1229V11.6525H28.2725V5.81873H24.3292V20.2776C24.3292 21.5034 24.4326 22.5373 24.6393 23.3643C24.8461 24.1766 25.2006 24.8412 25.6879 25.3434C26.1753 25.8455 26.8252 26.2 27.6079 26.4215C28.4054 26.6431 29.4097 26.7464 30.606 26.7464H31.1229ZM53.69 26.5988V4.66675H49.7467V26.5988H53.69ZM20.5336 13.1146C19.4406 11.9331 17.9047 11.3423 15.9552 11.3423C15.0099 11.3423 14.1533 11.5343 13.3706 11.9183C12.6026 12.3023 11.938 12.834 11.4211 13.5134L11.1995 13.794V11.6525H7.31528V26.5988H11.2291V18.6382V19.1847C11.2291 19.0961 11.2291 19.0075 11.2291 18.9189C11.2734 17.5158 11.6131 16.482 12.2629 15.8174C12.957 15.1085 13.7989 14.754 14.7589 14.754C15.8961 14.754 16.7675 15.1085 17.3434 15.7878C17.9047 16.4672 18.2 17.4272 18.2 18.653V26.584H22.1729V18.1066C22.1877 15.9798 21.6265 14.2962 20.5336 13.1146ZM47.7085 19.0961C47.7085 18.018 47.5165 17.0137 47.1473 16.0684C46.7633 15.138 46.2316 14.3109 45.567 13.602C44.8877 12.8931 44.0754 12.3466 43.1301 11.9479C42.1849 11.5491 41.1363 11.3571 39.9991 11.3571C38.921 11.3571 37.9019 11.5639 36.9567 11.9626C36.0115 12.3762 35.1844 12.9226 34.4903 13.6168C33.7961 14.3109 33.2349 15.138 32.8361 16.0832C32.4226 17.0284 32.2306 18.0475 32.2306 19.1256C32.2306 20.2038 32.4226 21.2228 32.8066 22.168C33.1906 23.1133 33.7371 23.9403 34.4164 24.6345C35.0958 25.3286 35.9376 25.8898 36.9124 26.2886C37.8871 26.7021 38.9653 26.9089 40.1173 26.9089C43.4551 26.9089 45.5227 25.3877 46.7633 23.9699L43.9277 21.8136C43.3369 22.5225 41.9191 23.4825 40.1468 23.4825C39.0391 23.4825 38.1235 23.2314 37.4293 22.7145C36.7352 22.2124 36.2626 21.5034 36.0115 20.6321L35.9672 20.4991H47.7085V19.0961ZM35.9967 17.7226C35.9967 16.6297 37.2521 14.7245 39.9548 14.7097C42.6575 14.7097 43.9277 16.6149 43.9277 17.7078L35.9967 17.7226Z" fill="#0068B5"/>
<path d="M58.1798 24.6492C58.1059 24.472 58.0026 24.3243 57.8696 24.1914C57.7367 24.0585 57.589 23.9551 57.4118 23.8812C57.2346 23.8074 57.0426 23.7631 56.8506 23.7631C56.6438 23.7631 56.4666 23.8074 56.2893 23.8812C56.1121 23.9551 55.9644 24.0585 55.8315 24.1914C55.6986 24.3243 55.5952 24.472 55.5214 24.6492C55.4475 24.8265 55.4032 25.0185 55.4032 25.2105C55.4032 25.4172 55.4475 25.5945 55.5214 25.7717C55.5952 25.9489 55.6986 26.0966 55.8315 26.2295C55.9644 26.3624 56.1121 26.4658 56.2893 26.5397C56.4666 26.6135 56.6586 26.6578 56.8506 26.6578C57.0573 26.6578 57.2346 26.6135 57.4118 26.5397C57.589 26.4658 57.7367 26.3624 57.8696 26.2295C58.0026 26.0966 58.1059 25.9489 58.1798 25.7717C58.2536 25.5945 58.2979 25.4025 58.2979 25.2105C58.2979 25.0185 58.2536 24.8265 58.1798 24.6492ZM57.9435 25.6831C57.8844 25.8308 57.7958 25.9637 57.6924 26.0671C57.589 26.1704 57.4561 26.2591 57.3084 26.3181C57.1607 26.3772 57.013 26.4067 56.8358 26.4067C56.6733 26.4067 56.5109 26.3772 56.3632 26.3181C56.2155 26.2591 56.0826 26.1704 55.9792 26.0671C55.8758 25.9637 55.7872 25.8308 55.7281 25.6831C55.669 25.5354 55.6395 25.3877 55.6395 25.2105C55.6395 25.048 55.669 24.8855 55.7281 24.7378C55.7872 24.5902 55.8758 24.4572 55.9792 24.3539C56.0826 24.2505 56.2155 24.1619 56.3632 24.1028C56.5109 24.0437 56.6586 24.0142 56.8358 24.0142C56.9983 24.0142 57.1607 24.0437 57.3084 24.1028C57.4561 24.1619 57.589 24.2505 57.6924 24.3539C57.7958 24.4572 57.8844 24.5902 57.9435 24.7378C58.0026 24.8855 58.0321 25.0332 58.0321 25.2105C58.0469 25.3877 58.0026 25.5354 57.9435 25.6831ZM57.1164 25.3286C57.2346 25.3138 57.3232 25.2695 57.397 25.1957C57.4709 25.1218 57.5152 25.0185 57.5152 24.8708C57.5152 24.7083 57.4709 24.5902 57.3675 24.5015C57.2789 24.4129 57.1164 24.3686 56.9244 24.3686H56.2746V26.0375H56.5847V25.3581H56.8063L57.2198 26.0375H57.5447L57.1164 25.3286ZM56.9539 25.0923C56.9096 25.0923 56.8653 25.0923 56.8063 25.0923H56.5847V24.6197H56.8063C56.8506 24.6197 56.8949 24.6197 56.9539 24.6197C56.9983 24.6197 57.0426 24.6345 57.0869 24.6492C57.1312 24.664 57.1607 24.6935 57.1755 24.7231C57.1903 24.7526 57.205 24.7969 57.205 24.856C57.205 24.9151 57.1903 24.9594 57.1755 24.9889C57.1459 25.0185 57.1164 25.048 57.0869 25.0628C57.0426 25.0775 56.9983 25.0923 56.9539 25.0923Z" fill="#0068B5"/>
</g>
<defs>
<clipPath id="clip0_292_161">
<rect width="58" height="32" fill="white"/>
</clipPath>
</defs>
</svg>
