<svg width="114" height="33" viewBox="0 0 114 33" fill="none" xmlns="http://www.w3.org/2000/svg">
<path d="M60.8252 9.025C60.6668 9.21666 60.5771 9.43068 60.5771 9.80281V20.0349H60.5203C60.5203 20.0349 54.9095 10.0504 54.6383 9.58879C54.4462 9.26138 54.2318 9.03618 53.9494 8.86689C53.667 8.70957 53.3734 8.60815 52.8093 8.60815H50.958C50.5283 8.60815 50.2579 8.75429 50.0659 8.98028C49.9075 9.17114 49.8171 9.38596 49.8171 9.75729V24.2609C49.8171 24.633 49.9075 24.8471 50.0659 25.0387C50.2579 25.2639 50.5283 25.41 50.958 25.41H52.0076C52.4365 25.41 52.7077 25.2639 52.8997 25.0387C53.0573 24.8471 53.1477 24.633 53.1477 24.2609V13.7805H53.2045C53.2045 13.7805 59.0298 24.0804 59.2674 24.4637C59.5947 25.0044 60.1475 25.41 60.938 25.41H62.7333C63.1622 25.41 63.4334 25.2639 63.6254 25.0387C63.783 24.8471 63.8734 24.633 63.8734 24.2609V11.1771H87.4585C87.6962 11.1771 87.8762 11.1101 88.0122 10.9975C88.1586 10.8617 88.2266 10.6812 88.2266 10.4113V9.4195C88.2266 9.14878 88.1586 8.9683 88.0122 8.83335C87.8762 8.72075 87.6962 8.65287 87.4585 8.65287H61.7172C61.2884 8.65287 61.0172 8.79981 60.8252 9.025ZM71.122 12.9013C67.2041 12.9013 65.0023 15.9558 65.0023 19.1788C65.0023 22.6159 67.3625 25.636 71.1444 25.636C73.0302 25.636 74.8815 24.9261 75.9424 23.6748C76.4056 23.1341 76.7785 22.3787 76.7785 21.9171C76.7785 21.759 76.7441 21.624 76.6545 21.5226C76.5641 21.41 76.428 21.3421 76.1912 21.3421H74.3735C74.0118 21.3421 73.7638 21.4771 73.583 21.7478C73.0526 22.5256 72.2845 22.9313 71.1556 22.9313C69.4619 22.9313 68.3674 21.6464 68.2882 20.2377H76.1464C76.496 20.2377 76.7441 20.1587 76.9137 19.9902C77.1057 19.8097 77.1961 19.5501 77.1961 19.0654C77.1961 17.5897 76.7329 16.0572 75.7624 14.8849C74.7687 13.7014 73.2558 12.9013 71.122 12.9013ZM83.2358 12.9013C80.1428 12.9013 78.1106 14.3666 78.1106 16.7104C78.1106 17.5441 78.4154 18.2205 78.9122 18.75C79.4883 19.3705 80.3124 19.7985 81.5093 20.1028L84.0943 20.756C84.8055 20.9365 85.4376 21.1505 85.4376 21.7702C85.4376 22.7284 84.4215 23.0551 83.3382 23.0551C82.807 23.0551 82.2541 22.9536 81.8021 22.7284C81.4861 22.5703 81.2156 22.3451 81.0236 22.0409C80.854 21.7813 80.798 21.5897 80.538 21.4436C80.3796 21.3533 80.1876 21.3421 79.9283 21.3421H78.5282C78.2234 21.3421 78.077 21.4324 77.9754 21.5562C77.8738 21.6799 77.8394 21.8604 77.8394 22.0409C77.8394 22.4913 77.9978 23.0551 78.3706 23.5622C79.2283 24.7113 81.0236 25.636 83.315 25.636C85.5736 25.636 88.701 24.7001 88.701 21.6799C88.701 20.9029 88.4746 20.2377 88.057 19.6971C87.5266 19.0095 86.7705 18.536 85.4832 18.2093L82.9206 17.5553C81.8589 17.2854 81.362 17.0937 81.362 16.4397C81.362 15.8088 81.9269 15.3018 83.2358 15.3018C84.0039 15.3018 84.7039 15.4711 85.156 15.9446C85.528 16.3391 85.4608 16.5419 85.7544 16.6993C85.9344 16.7895 86.1376 16.7895 86.4545 16.7895H87.7298C87.933 16.7895 88.0802 16.756 88.1922 16.6314C88.2834 16.53 88.3394 16.3726 88.3394 16.1131C88.3394 15.527 87.9554 14.7723 87.2785 14.1973C86.3753 13.4195 84.9527 12.9013 83.2358 12.9013ZM90.27 13.3301H89.6379C89.4011 13.3301 89.2203 13.3972 89.0851 13.5098C88.9379 13.6455 88.8699 13.826 88.8699 14.0959V14.8737C88.8699 15.1444 88.9379 15.3241 89.0851 15.4599C89.2203 15.5725 89.4011 15.6404 89.6379 15.6404H90.27V21.2631C90.27 22.7053 90.6652 23.6069 91.3989 24.3288C92.0765 24.9932 92.9574 25.41 94.4927 25.41H95.452C95.6896 25.41 95.8696 25.343 96.0056 25.2304C96.1521 25.0946 96.2425 24.9141 96.2425 24.6442V23.6636C96.2425 23.3929 96.1521 23.2132 96.0056 23.0774C95.8696 22.9648 95.6896 22.8969 95.452 22.8969H95.3168C94.7071 22.8969 94.2895 22.7396 94.0071 22.4689C93.6686 22.1535 93.499 21.6687 93.499 21.0379V15.6404H95.5544C95.7912 15.6404 95.972 15.5725 96.1073 15.4599C96.2537 15.3241 96.3217 15.1444 96.3217 14.8737V14.0959C96.3217 13.826 96.2537 13.6455 96.1073 13.5098C95.972 13.3972 95.7912 13.3301 95.5544 13.3301H93.5102V9.65587C93.5102 9.3628 93.4198 9.14878 93.2846 8.98028C93.115 8.77745 92.8782 8.65287 92.5286 8.65287H91.2525C90.902 8.65287 90.6652 8.77745 90.4956 8.98028C90.3604 9.14878 90.27 9.3628 90.27 9.65587V13.3301ZM97.1801 24.407C97.1801 24.7001 97.2698 24.9141 97.4058 25.0834C97.5746 25.2863 97.8122 25.41 98.1618 25.41H99.5051C99.8556 25.41 100.092 25.2863 100.262 25.0834C100.397 24.9141 100.488 24.7001 100.488 24.407V9.65667C100.488 9.3636 100.397 9.14958 100.262 8.98028C100.092 8.77745 99.8556 8.65287 99.5051 8.65287H98.1618C97.8122 8.65287 97.5746 8.77745 97.4058 8.98028C97.2698 9.14958 97.1801 9.3636 97.1801 9.65667V24.407ZM68.3106 17.8372C68.457 16.4509 69.5187 15.4144 71.1332 15.4144C72.7141 15.4144 73.8086 16.4509 73.9558 17.8372H68.3106ZM112.715 11.1771C112.952 11.1771 113.133 11.1101 113.268 10.9975C113.415 10.8617 113.483 10.6812 113.483 10.4113V9.3628C113.483 8.95712 113.404 8.75429 113.268 8.60815C113.144 8.47239 112.941 8.39413 112.715 8.39413C112.534 8.39413 112.354 8.41649 112.049 8.45003L103.039 9.34044C102.78 9.3628 102.656 9.44186 102.565 9.54327C102.464 9.65587 102.418 9.80281 102.418 10.0056V10.591C102.418 10.817 102.464 10.9184 102.543 11.0086C102.644 11.1212 102.791 11.1771 102.994 11.1771H112.715ZM107.736 12.9013C103.818 12.9013 101.617 15.9558 101.617 19.1788C101.617 22.6159 103.977 25.636 107.759 25.636C109.644 25.636 111.496 24.9261 112.557 23.6748C113.02 23.1341 113.393 22.3787 113.393 21.9171C113.393 21.759 113.358 21.624 113.268 21.5226C113.178 21.41 113.042 21.3421 112.805 21.3421H110.988C110.626 21.3421 110.378 21.4771 110.197 21.7478C109.667 22.5256 108.899 22.9313 107.77 22.9313C106.076 22.9313 104.981 21.6464 104.902 20.2377H112.783C113.133 20.2377 113.381 20.1587 113.55 19.9902C113.742 19.8097 113.833 19.5501 113.833 19.0654C113.833 17.5897 113.369 16.0572 112.399 14.8849C111.405 13.7014 109.87 12.9013 107.736 12.9013ZM104.925 17.8372C105.072 16.4509 106.133 15.4144 107.747 15.4144C109.328 15.4144 110.423 16.4509 110.57 17.8372H104.925Z" fill="#939CA1"/>
<path d="M37.0836 11.3122C34.161 6.96082 31.5928 5.49465 30.8703 4.80469C30.0766 4.04365 29.4718 3.1812 29.087 2.76594C28.2309 1.83241 27.1228 0.680075 25.3003 0.680075C23.5409 0.680075 22.3784 1.82443 22.0008 2.81305C21.8912 3.09495 21.8048 3.43993 21.7264 3.56531C21.5535 3.848 20.7759 5.17283 20.4535 5.69828H21.9072L21.1999 7.0311C22.0248 6.85062 22.6136 6.71726 23.3993 6.71726C24.0986 6.71726 24.601 6.88256 24.821 7.32098C25.2299 8.13712 25.2299 10.6063 25.9211 12.4654C26.5652 14.2126 28.1365 15.9224 29.9038 17.232C29.927 17.2472 29.951 17.2552 29.9822 17.2552C30.0686 17.2552 30.1238 17.1929 30.1238 17.1298C30.1238 17.0827 30.1078 17.0515 30.0686 17.0124C28.5917 15.5383 27.39 13.9076 26.746 12.1204C26.1091 10.3795 26.2115 7.93268 25.6539 6.84263C25.2843 6.12152 24.4994 5.93386 23.7761 5.93386C23.1953 5.93386 22.6528 6.05125 22.4016 6.10556L23.0377 5.03148H21.9616C22.1896 4.63219 22.4248 4.26326 22.5432 4.04365C22.6448 3.85519 22.6848 3.62041 22.8105 3.29938C23.2185 2.27163 24.1218 1.62079 25.3003 1.62079C26.7772 1.62079 27.6412 2.56949 28.4973 3.51819C28.8901 3.9574 29.5342 4.87496 30.2807 5.55694C30.7911 6.0273 31.7656 6.55275 33.2657 8.09799C34.1298 8.99158 35.1355 10.1519 36.1955 11.7043C39.9903 17.2472 42.4801 22.132 43.8706 25.9428L43.8474 25.9588C39.8647 23.2612 36.4156 20.713 33.6353 17.569C31.6632 15.3346 29.951 12.7473 28.4581 9.44597C28.3557 9.22636 28.2701 9.02273 28.1757 8.81111C28.1365 8.72486 28.0973 8.7009 28.0341 8.7009C27.9557 8.7009 27.9005 8.75601 27.9005 8.83426C27.9005 8.92051 27.9397 9.10897 28.0261 9.4851C28.8197 12.9038 31.0191 15.9695 33.3681 18.5177C35.7091 21.0508 38.3557 23.2301 40.5319 24.8144L42.2288 29.6594C42.268 29.7775 42.3153 29.9029 42.3153 30.0203C42.3153 30.1066 42.2912 30.1768 42.2368 30.2239C42.1896 30.2711 42.1272 30.295 41.9856 30.295H41.4752C41.2552 30.295 41.168 30.2631 41.0895 30.2008C41.0111 30.1377 40.9567 30.0435 40.9167 29.9341C40.7679 29.4789 39.8718 26.9306 39.6998 26.4132C39.6678 26.3197 39.6126 26.2878 39.5502 26.2878C39.4718 26.2878 39.4166 26.3509 39.4166 26.4212C39.4166 26.4842 39.4398 26.5545 39.4798 26.7741C39.707 27.9344 39.9743 29.2361 40.0839 29.7304C40.1319 29.9572 40.1863 30.1696 40.1863 30.3262C40.1863 30.4667 40.1551 30.5458 40.0375 30.6632L39.511 31.1966C39.3854 31.322 39.3142 31.3531 39.2126 31.3531C39.087 31.3531 38.9846 31.2669 38.9374 31.0473C38.3405 28.2635 37.4373 24.8144 37.2012 23.8569C37.146 23.6461 37.1068 23.5279 36.9812 23.5279C36.8716 23.5279 36.8324 23.6062 36.8324 23.7004C36.8324 23.7707 36.8476 23.857 36.8556 23.92C36.9972 24.9079 37.5709 28.507 38.1909 31.7923C38.3013 32.3569 38.5133 32.67 39.0006 32.67C39.2206 32.67 39.4318 32.5837 39.6286 32.396C39.9511 32.0742 40.0447 31.988 40.4303 31.6119C40.7047 31.3451 40.8935 31.2357 41.3648 31.2357H42.5273C42.8025 31.2357 42.9513 31.1655 43.0849 31.0393C43.2105 30.9219 43.2889 30.7574 43.2889 30.5218C43.2889 30.279 43.2265 30.0834 43.1401 29.8398C42.8417 29.0405 41.8832 26.3349 41.6 25.5747L41.624 25.5587C42.6057 26.3038 44.0354 27.2525 44.6642 27.2525C44.8603 27.2525 44.9787 27.1662 44.9787 26.8604C44.9787 25.4182 42.5745 19.4824 37.0836 11.3122Z" fill="#939CA1"/>
<path d="M10.1159 2.20114C10.2807 1.84019 10.6423 1.58944 11.0744 1.58944C11.6632 1.58944 12.1345 2.04463 12.1345 2.64834C12.1345 3.00051 11.9696 3.30716 11.7104 3.49483C11.7656 3.69926 11.8048 3.87894 11.8048 4.05143C11.8048 4.71025 11.412 5.17262 10.6895 5.41618C10.5951 5.81547 10.4223 6.17642 10.1391 6.44314C9.66786 6.89753 9.18862 6.89753 9.18862 7.08599C9.18862 7.18821 9.25982 7.2505 9.45584 7.2505C10.3279 7.2505 11.184 6.76497 11.2864 5.95682C12.1193 5.67492 12.6217 4.83562 12.6217 4.16962C12.6217 3.99633 12.6057 3.84779 12.5353 3.70725C12.7633 3.48684 13.0305 3.11072 13.0305 2.55411C13.0305 2.06778 12.8177 1.57427 12.4409 1.21331C12.1113 0.891491 11.6472 0.679871 11.1056 0.679871C10.3199 0.679871 9.80947 1.10391 9.51904 1.51917C8.66217 1.51917 7.55488 2.46787 7.55488 3.82464H7.43727C7.35807 3.35428 6.87163 3.03964 6.46279 3.01648C6.13317 2.02865 5.3867 1.18217 4.161 1.18217C4.02019 1.18217 3.84738 1.19016 3.69777 1.21331C3.33694 0.883505 2.93611 0.679871 2.37846 0.679871C1.30957 0.679871 0.4375 1.53514 0.4375 2.6164C0.4375 3.29119 0.743925 3.75356 1.32557 4.16163C1.32557 4.16163 1.31757 4.24788 1.31757 4.28701C1.31757 5.14946 2.26005 6.49825 3.65856 6.49825C3.65856 6.71705 3.93379 7.01572 4.24021 7.07002V7.18022H4.1218C2.19764 7.18022 1.38078 8.10577 1.38078 8.72466C0.80713 8.96023 0.4375 9.5951 0.4375 10.1828C0.4375 11.3512 1.29437 12.1825 2.42566 12.1825C2.80249 12.1825 3.18733 12.0339 3.45455 11.8295C3.65056 11.8998 3.90178 11.9389 4.161 11.9389C4.70345 11.9389 5.3083 11.7512 5.73233 11.1315C5.79554 11.1395 5.84994 11.1395 5.91315 11.1395C6.6044 11.1395 7.20125 10.6843 7.51568 10.0886C7.59409 9.94008 7.62529 9.82269 7.62529 9.73565C7.62529 9.6502 7.58608 9.57913 7.49968 9.57913C7.39007 9.57913 7.37407 9.68134 7.17805 9.86182C6.73802 10.2619 6.06196 10.4104 5.3707 10.4104C5.03308 10.9047 4.61704 11.1635 4.1378 11.1635C3.78417 11.1635 3.50975 11.0693 3.22653 10.8808C2.99851 11.1315 2.71609 11.2338 2.44086 11.2338C1.82081 11.2338 1.38078 10.8025 1.38078 10.1749C1.38078 9.73564 1.6632 9.34435 2.05603 9.19501C2.12644 8.4188 2.95931 7.89335 3.99619 7.89335C4.1298 7.89335 4.26341 7.90133 4.40502 7.9173C4.56184 7.66655 4.93867 7.39983 5.47311 7.32876C5.58352 7.31358 5.66913 7.3056 5.73233 7.27445C5.79554 7.24251 5.82674 7.18022 5.82674 7.10915C5.82674 7.04686 5.80274 6.99176 5.74033 6.95263C5.68513 6.92149 5.59072 6.90631 5.48111 6.88236C4.98587 6.78813 4.39702 6.48227 4.0986 5.73721C2.9121 5.73721 2.04003 4.78851 2.04003 3.72242V3.65215C1.6472 3.49483 1.38078 3.1187 1.38078 2.6715C1.38078 2.08375 1.84402 1.6134 2.43286 1.6134C2.78649 1.6134 3.09292 1.78589 3.28973 2.04463C3.45455 1.99751 3.64256 1.98154 3.82338 1.98154C4.70345 1.98154 5.64593 2.53814 5.82674 3.6202C6.95803 3.72242 7.22526 4.6791 7.29566 5.07919C7.33486 5.28282 7.36607 5.45531 7.49968 5.45531C7.64129 5.45531 7.67249 5.298 7.7197 5.08637C7.8061 4.68709 7.95572 4.36527 8.25414 4.11452C8.25414 3.08676 9.0238 2.20114 10.1159 2.20114Z" fill="#939CA1"/>
<path d="M12.4017 8.34817C12.0321 8.87363 11.7657 9.13237 10.9248 10.1202C9.8175 11.4298 9.23585 12.4888 8.26937 14.8405C8.42699 14.8246 8.655 14.8094 8.90623 14.8094C9.03184 14.8094 9.13344 14.8094 9.29906 14.8166L9.41667 14.5658C9.95911 13.4055 10.6888 11.8371 11.7105 10.6297L12.0641 10.2144C13.1162 8.98383 13.7682 8.25394 14.1771 6.57615C14.3187 5.98041 14.4363 5.44777 14.8371 5.06286C15.1979 4.71788 15.654 4.56934 16.1172 4.56934C16.51 4.56934 16.8013 4.66357 17.2253 4.84325C17.6101 5.00776 17.7509 5.0397 18.1598 5.0397C18.3014 5.0397 18.403 5.03171 18.4974 5.02373L17.9478 5.76081L18.6942 6.28627C17.7589 6.56017 17.2645 7.46256 17.0989 7.87781C17.0677 7.96406 17.0525 8.01916 17.0525 8.07426C17.0525 8.13735 17.0837 8.19964 17.1781 8.19964C17.2797 8.19964 17.3581 8.12138 17.4917 7.96406C17.9478 7.41544 18.3094 7.03852 19.9895 6.51386L18.8038 5.61946L19.6991 4.31061H18.859C18.3246 4.31061 17.971 4.30262 17.5077 4.091C16.8789 3.80112 16.5573 3.67574 15.9996 3.67574C15.3164 3.67574 14.6955 3.91851 14.1851 4.38886C13.5954 4.9295 13.4146 5.6514 13.2034 6.44358C13.0378 7.05449 12.8417 7.72928 12.4017 8.34817Z" fill="#939CA1"/>
<path d="M14.2084 13.6878C13.7604 14.2915 13.1475 15.0829 12.6763 15.9221C12.8259 15.9932 13.3211 16.2599 13.4939 16.3534C14.0356 15.538 14.79 14.535 15.2845 13.774C15.7325 13.084 15.9133 12.7862 15.9445 11.8606C15.9525 11.7041 15.9525 11.5548 15.9677 11.4062C16.0069 10.9279 16.1334 10.4416 16.5886 9.99517C16.9262 9.65737 17.4135 9.48568 17.9007 9.48568C18.3719 9.48568 18.6464 9.61824 19.0552 9.61824C19.3456 9.61824 19.5576 9.54797 19.7465 9.47769L19.8961 9.42259L19.5344 10.2858L20.3825 10.63C19.8409 10.967 18.6544 12.418 18.6544 14.1349C18.6544 14.7546 18.7488 15.3264 18.8824 15.8359C18.8984 15.891 18.9296 15.9461 19.016 15.9461C19.0944 15.9461 19.1496 15.899 19.1576 15.8127L19.1656 15.6323C19.1888 15.1068 19.228 14.2763 19.44 13.5312C19.7937 12.2767 20.7441 11.1004 21.6946 10.5358L20.3433 9.94805L20.925 8.52899L20.2889 8.66235C19.9041 8.74061 19.6208 8.81089 19.2832 8.81089C19.0632 8.81089 18.812 8.77975 18.5136 8.70867C18.2855 8.65437 18.0415 8.60725 17.6967 8.60725C17.0758 8.60725 16.4078 8.84203 15.9525 9.28125C15.1197 10.0734 15.0725 10.9279 15.0173 11.6889C14.9469 12.6999 14.758 12.9507 14.2084 13.6878Z" fill="#939CA1"/>
<path d="M34.3656 14.166C34.3104 14.0957 34.2631 14.0637 34.2007 14.0637C34.1063 14.0637 34.0591 14.1268 34.0591 14.1971C34.0591 14.3073 34.1375 14.4407 34.3344 14.7705C34.9312 15.7815 35.6697 16.8004 36.5809 17.7579C37.5626 18.8001 38.7171 19.7719 39.9508 20.6424L40.3356 20.9091C40.3909 20.949 40.4301 20.9722 40.4773 20.9722C40.5557 20.9722 40.6109 20.8939 40.6109 20.8308C40.6109 20.7917 40.5949 20.7518 40.5477 20.7126C39.4012 19.6705 38.1675 18.4 37.013 17.1774C36.1089 16.2127 35.1824 15.1937 34.3656 14.166Z" fill="#939CA1"/>
<path d="M9.08671 10.6143C9.20432 10.4186 9.55795 9.9403 9.69956 9.79097C9.09471 8.56836 8.10503 7.40005 7.673 6.93688L7.31137 7.28985C7.7282 7.89357 8.42666 9.06188 9.08671 10.6143Z" fill="#939CA1"/>
<path d="M3.32871 3.53426C3.25751 3.47117 3.24231 3.43204 3.24231 3.38493C3.24231 3.33062 3.28151 3.26754 3.36792 3.26754C3.39912 3.26754 3.43032 3.27552 3.47032 3.29149C4.05117 3.52627 4.54641 3.80098 4.98645 4.13798C5.35528 4.41987 5.71691 4.76565 6.06974 5.18091L5.74011 5.55703C5.33208 5.21924 4.01197 4.11482 3.32871 3.53426Z" fill="#939CA1"/>
<path d="M8.89823 6.16086L8.4742 5.90212C8.74862 5.25129 9.08705 4.65555 9.48708 4.20836C9.7703 3.88733 10.0375 3.6278 10.336 3.36986C10.4064 3.31476 10.4456 3.26764 10.516 3.26764C10.5952 3.26764 10.6504 3.33073 10.6504 3.39302C10.6504 3.42416 10.6344 3.46329 10.6032 3.51041C10.1239 4.25547 9.18866 5.72963 8.89823 6.16086Z" fill="#939CA1"/>
<path d="M3.57231 9.79875C3.4699 9.83788 3.4227 9.86183 3.3683 9.86183C3.28189 9.86183 3.24189 9.79076 3.24189 9.73566C3.24189 9.68136 3.26589 9.65021 3.32109 9.6023C4.28677 8.85005 5.13564 8.55218 6.30614 8.35573L6.44695 8.82689L3.57231 9.79875Z" fill="#939CA1"/>
<path d="M23.7213 3.71473C23.7213 3.44002 23.8629 2.94571 24.3734 2.94571C24.5462 2.94571 24.711 2.98484 24.8446 3.04793C25.0334 3.13417 25.1591 3.25955 25.1591 3.39291C25.1591 3.53425 25.0174 3.6756 24.8054 3.84809C24.5854 4.02777 24.303 4.19307 24.075 4.19307C23.8005 4.19307 23.7213 3.93354 23.7213 3.71473Z" fill="#939CA1"/>
<path d="M15.7481 6.00401C15.7481 5.66701 15.9521 5.29807 16.345 5.29807C16.5178 5.29807 16.7218 5.36835 16.8714 5.51049C16.9578 5.58875 16.997 5.6742 16.997 5.76124C16.997 5.94971 16.8162 6.12938 16.6042 6.25476C16.4394 6.34899 16.2666 6.41208 16.1178 6.41208C15.8737 6.41208 15.7481 6.26195 15.7481 6.00401Z" fill="#939CA1"/>
<path d="M17.5942 10.8418C17.5942 10.7636 17.6022 10.6693 17.6334 10.5751C17.6966 10.3715 17.8294 10.175 18.1598 10.175C18.3095 10.175 18.4735 10.2142 18.6071 10.3092C18.7255 10.3875 18.7727 10.4889 18.7727 10.5911C18.7727 10.9281 18.207 11.3202 17.9238 11.3202C17.7198 11.3202 17.5942 11.1237 17.5942 10.8418Z" fill="#939CA1"/>
<path d="M14.4991 20.7365C13.439 20.7365 12.967 20.235 12.967 19.6002C12.967 18.4862 14.9232 17.3969 16.6825 16.7221L17.1385 17.3107C16.0544 17.7411 13.8711 18.6674 13.8711 19.4668C13.8711 19.7487 14.0359 19.9531 14.6951 19.9531C15.8424 19.9531 17.0761 19.3957 18.2146 18.8391C18.301 18.8 18.4034 18.7609 18.4978 18.7609C18.6467 18.7609 18.7411 18.808 18.8507 18.9645L19.0395 19.2232C17.7122 19.9531 16.0544 20.7365 14.4991 20.7365Z" fill="#939CA1"/>
<path d="M17.4215 21.0348C16.3846 21.6146 15.3085 21.9995 14.358 21.9995C13.2971 21.9995 12.3547 21.5443 11.569 20.36C11.2394 19.8585 10.9802 19.2316 10.6657 18.675C10.2889 18.0162 9.88007 17.6633 9.16561 17.6633C8.51356 17.6633 7.8767 17.93 7.20145 18.2199L7.23265 18.3692C7.28786 18.612 7.38226 18.7844 7.60948 18.7844C7.71189 18.7844 7.8143 18.7381 7.8695 18.7222C8.24633 18.604 8.52076 18.5018 8.90639 18.5018C9.49524 18.5018 9.77766 18.8475 10.1785 19.694L10.3281 20.0079C9.91927 20.1492 8.96079 20.2195 8.24633 20.2195H7.90871L7.96391 20.5565C7.98711 20.6978 8.04232 20.8152 8.15993 20.8703C8.30074 20.9406 8.50556 20.9486 8.85919 20.9486C9.75446 20.9486 10.4065 20.8392 10.7833 20.7441C11.7498 22.18 13.0771 22.7286 14.358 22.7286C15.4493 22.7286 16.5574 22.3285 17.6183 21.7487L17.4215 21.0348Z" fill="#939CA1"/>
<path d="M18.4896 21.3876L18.3016 20.6657C19.9193 19.7961 21.3962 19.0982 23.7532 18.8706C23.8004 19.7721 23.7372 20.9093 24.4053 20.9093C25.0173 20.9093 26.3526 19.3329 27.8927 17.3573C28.0344 17.4906 28.2616 17.632 28.4664 17.7885L28.0736 18.298C26.5726 20.2273 25.2925 21.874 24.2396 21.874C23.258 21.874 22.8883 20.7208 22.8731 19.8584C21.373 20.0077 19.9585 20.5092 18.4896 21.3876Z" fill="#939CA1"/>
<path d="M39.2753 5.65118C38.6625 5.65118 38.4897 5.31339 38.4897 4.83584C38.4897 3.84801 39.1105 2.42896 39.5033 1.6208H38.5521C38.0576 2.57749 36.1095 5.6432 35.0566 6.91372L35.6614 7.56376C36.2271 6.93688 36.8479 5.87079 37.5232 4.81987H37.6488C37.6488 4.87497 37.6416 4.93726 37.6416 4.99236C37.6416 5.87877 38.0968 6.5368 39.2201 6.5368C39.9114 6.5368 40.9955 6.19181 42.0171 5.84683C42.8652 5.55695 43.6429 5.25908 44.0277 5.14968V4.20897C43.5877 4.34153 42.6924 4.68651 41.7651 5.00833C40.7914 5.34533 39.833 5.65118 39.2753 5.65118Z" fill="#939CA1"/>
<path d="M41.3726 8.49719C42.315 8.09791 44.004 7.42312 44.9785 7.07015V6.11346C43.0223 6.83537 39.5892 8.25443 37.2482 9.52495C37.3114 9.60241 37.7203 10.175 37.7667 10.2461C38.7563 9.83799 39.6444 9.57127 40.4453 9.57127C41.5694 9.57127 42.4878 9.57127 44.028 9.21032V8.48921C43.1639 8.64653 42.2446 8.83419 41.6478 8.83419C41.2941 8.83419 41.1917 8.78707 41.1917 8.66968C41.1917 8.59941 41.2389 8.5523 41.3726 8.49719Z" fill="#939CA1"/>
<path d="M21.2468 12.9037L20.8692 13.6256H24.8839L24.5855 12.9037H21.2468Z" fill="#939CA1"/>
<path d="M6.78498 17.2083C7.20901 17.2083 7.55464 17.067 7.88507 16.9344C8.19869 16.8082 8.51312 16.6829 8.93715 16.6829C9.94284 16.6829 11.1837 17.1692 12.2758 17.6316C12.339 17.6555 12.4094 17.6707 12.4798 17.6707C12.6535 17.6707 12.7871 17.5924 12.8727 17.4279L13.0143 17.1692C11.8126 16.4712 9.89563 15.7262 8.89795 15.7262C8.44271 15.7262 8.11229 15.8444 7.79866 15.9689C7.44503 16.1111 7.13861 16.2596 6.81618 16.2596C6.02332 16.2596 3.98875 15.4754 3.98875 14.7152C3.98875 13.8216 7.22502 13.4766 7.57864 13.4766L7.90027 12.7467C5.55208 12.7467 2.75505 13.57 2.75505 14.6601C2.75505 14.9739 2.93586 15.1304 2.93586 15.4203C2.93586 15.8124 2.75505 16.0791 2.75505 16.5183C2.75505 16.8082 2.92786 17.1772 3.13188 17.499C3.3519 17.836 3.61112 18.0548 3.61112 18.3375C3.61112 18.5491 3.47031 18.7999 3.47031 19.2942C3.47031 20.3523 4.07516 20.9959 5.25285 22.2577L5.48887 22.5084C4.51519 22.8853 2.69984 23.6695 2.27581 23.8492C0.80689 24.4609 0.43806 25.206 0.43806 26.3823C0.43806 26.8367 0.43806 27.3541 0.469262 27.8165H0.751686C1.34133 27.8165 1.41174 27.4643 1.41174 27.1273C1.41174 26.8997 1.40374 26.641 1.40374 26.3583C1.41174 25.7083 1.43574 25.1277 2.48783 24.6574C2.91266 24.4689 4.99363 23.6224 6.54176 22.9636C6.997 22.7672 7.42103 22.6026 7.89227 22.6026C8.41871 22.6026 9.02356 22.8302 9.77802 23.2774C10.4141 23.6536 11.0821 24.163 11.6086 24.7508L12.2758 24.2413C11.7022 23.5673 10.9093 22.9636 10.1157 22.4932C9.32199 22.0229 8.61553 21.7482 8.01868 21.7482C7.75946 21.7482 7.54744 21.7953 7.36663 21.8424C7.15461 21.8975 6.95779 21.9598 6.70657 21.9598C6.41615 21.9598 6.17213 21.8895 5.8185 21.4815C5.68489 21.3329 4.83682 20.3682 4.656 20.0864C4.5696 19.953 4.41279 19.6863 4.41279 19.3724C4.41279 19.2391 4.43599 19.0826 4.51519 18.9412C5.24485 19.5058 6.14893 19.8508 7.24822 19.9841L7.0994 19.2391C5.52008 18.8238 3.83914 17.4359 3.83914 16.5423C3.83914 16.3538 3.88634 16.2205 3.95755 16.056C4.5696 16.6206 6.00732 17.2083 6.78498 17.2083Z" fill="#939CA1"/>
<path d="M18.0892 17.3497C19.0789 16.6518 20.0998 16.5735 20.9246 16.5735C21.4199 16.5735 22.0007 16.6438 22.6136 16.722C23.1088 16.7851 23.5561 16.8322 24.0905 16.8322C25.1666 16.8322 26.2507 16.4401 26.7219 16.2357C26.8555 16.401 27.0836 16.6206 27.2644 16.7771C27.0363 16.9185 25.5914 17.7019 24.1145 17.7019C23.4625 17.7019 22.8416 17.6244 22.3072 17.5534C21.8359 17.4911 21.3255 17.436 20.8302 17.436C20.2886 17.436 19.1965 17.5925 18.5213 17.9143L18.0892 17.3497Z" fill="#939CA1"/>
<path d="M32.6766 20.1488C31.4981 22.6268 29.7068 24.43 27.869 25.4729C26.9969 25.9664 26.2113 26.2882 24.5151 26.2882H20.846C19.5347 26.2882 18.7099 26.4607 18.0658 26.6252C17.3738 26.8057 16.9345 26.9854 16.2353 26.9854C15.1984 26.9854 14.2399 26.4759 13.7767 25.9904L14.6407 25.3084L14.2087 24.735C13.9575 24.9163 10.886 27.1818 10.2412 27.6913L10.202 27.6682C10.218 27.5116 10.218 27.3703 10.218 27.2289C10.218 25.504 9.41631 25.088 8.19941 24.6025L7.37454 25.088C9.04748 25.6454 9.46351 26.0918 9.46351 27.3383C9.46351 28.327 9.10988 28.7183 8.59944 29.0169C8.073 29.3228 7.42094 29.4633 6.8481 29.4633C6.60408 29.4633 6.49447 29.5105 6.40806 29.5967C6.31365 29.6909 6.26645 29.8323 6.26645 30.0279V30.3026H6.46326C7.51535 30.3026 8.48983 30.1381 9.55792 29.2988L13.0382 26.5861C13.5326 27.1507 14.7823 27.9349 16.2585 27.9349C17.0913 27.9349 17.6258 27.7304 18.3954 27.5348C18.9923 27.3855 19.5739 27.2521 20.846 27.2521H24.5303C26.4161 27.2521 27.3274 26.86 28.3323 26.2962C30.5164 25.0728 32.3782 23.0029 33.4311 20.6264C33.1558 20.4547 32.8966 20.2974 32.6766 20.1488Z" fill="#939CA1"/>
<path d="M26.7615 23.097C27.712 21.5758 28.56 20.227 30.6418 19.1297C30.4218 18.9964 30.1082 18.7927 29.9426 18.6825C29.1337 19.0355 28.3328 19.7406 27.6496 20.4546C26.0782 22.0852 26.219 23.026 24.5621 23.6616C24.1453 23.8181 23.6348 23.9906 22.9828 24.14C22.598 22.9557 21.6323 21.7794 20.6106 21.7794C19.9033 21.7794 19.0865 22.1475 18.144 22.5636C17.0367 23.0499 16.023 23.6065 15.7014 23.8181L16.1334 24.3987C16.4631 24.2174 17.4135 23.7471 18.364 23.3398C19.1889 22.9868 19.9353 22.6969 20.4378 22.6969C21.2466 22.6969 21.7731 23.6145 22.0643 24.3508C21.0034 24.6023 19.2593 24.6646 18.7336 24.6646C18.4896 24.6646 18.4032 24.7038 18.3168 24.7748C18.2384 24.8451 18.1752 24.9705 18.136 25.143L18.0736 25.4097H18.6384C21.5771 25.4097 24.3501 24.9473 26.1326 23.8653C26.3847 23.9363 26.6047 23.9826 26.8871 23.9826C27.908 23.9826 28.9609 23.426 29.6209 22.9166C29.8561 22.7361 29.9114 22.5708 29.9114 22.3911C29.9114 22.3048 29.9034 22.2266 29.8954 22.1475L29.8641 21.8425C28.9217 22.5867 28.136 23.1441 27.1623 23.1441C26.9895 23.1441 26.8639 23.1282 26.7615 23.097Z" fill="#939CA1"/>
</svg>
