<svg width="108" height="29" viewBox="0 0 108 29" fill="none" xmlns="http://www.w3.org/2000/svg">
<path d="M15.2142 27.056C13.6044 27.3386 11.9664 27.4234 10.2719 27.6491L5.10342 12.5114V28.2988C3.49367 28.4682 2.0251 28.6941 0.5 28.9201V0H4.79294L10.6672 16.409V0H15.2142V27.056ZM24.1105 10.5909C25.8617 10.5909 28.5447 10.5061 30.1544 10.5061V15.0248C28.1491 15.0248 25.8051 15.0248 24.1105 15.1095V21.8313C26.7654 21.6619 29.4202 21.4358 32.1031 21.351V25.7001L19.5917 26.6888V0H32.1031V4.51877H24.1105V10.5909ZM48.9072 4.51887H44.219V25.3051C42.6939 25.3051 41.1688 25.3051 39.7005 25.3615V4.51887H35.0123V0H48.9074L48.9072 4.51887ZM56.2501 10.2803H62.4353V14.7989H56.2501V25.051H51.8158V0H64.4405V4.51877H56.2501V10.2803ZM71.7834 21.097C74.3535 21.1533 76.9516 21.3513 79.4653 21.4923V25.9546C75.4268 25.7003 71.3881 25.4464 67.2647 25.3615V0H71.7834V21.097ZM83.278 26.2653C84.7183 26.3502 86.2434 26.4349 87.712 26.6041V0H83.278V26.2653ZM107.51 0L101.777 13.754L107.51 28.9201C105.815 28.6941 104.121 28.3835 102.426 28.101L99.1785 19.7415L95.8744 27.4234C94.2361 27.1407 92.6545 27.056 91.0168 26.83L96.8346 13.5844L91.5814 0H96.4389L99.4043 7.59719L102.568 0H107.51V0Z" fill="#D81F26"/>
</svg>
