<svg width="21" height="21" viewBox="0 0 21 21" fill="none" xmlns="http://www.w3.org/2000/svg">
<path d="M15.4999 8.5C16.1091 8.50002 16.7038 8.3146 17.205 7.9684C17.7062 7.6222 18.0902 7.13162 18.3058 6.56191C18.5214 5.99219 18.5585 5.37034 18.4121 4.77904C18.2657 4.18774 17.9428 3.65501 17.4863 3.2517C17.0297 2.84839 16.4613 2.59362 15.8564 2.52125C15.2516 2.44888 14.639 2.56235 14.1003 2.84658C13.5615 3.1308 13.122 3.5723 12.8402 4.11238C12.5585 4.65245 12.4478 5.2655 12.5229 5.87L7.58293 8.34C7.15916 7.93136 6.62453 7.65642 6.04562 7.54945C5.46672 7.44247 4.86914 7.50819 4.32731 7.7384C3.78549 7.96862 3.32338 8.35317 2.99854 8.84414C2.6737 9.33511 2.50049 9.9108 2.50049 10.4995C2.50049 11.0882 2.6737 11.6639 2.99854 12.1549C3.32338 12.6458 3.78549 13.0304 4.32731 13.2606C4.86914 13.4908 5.46672 13.5565 6.04562 13.4496C6.62453 13.3426 7.15916 13.0676 7.58293 12.659L12.5229 15.129C12.4354 15.8312 12.599 16.5418 12.9847 17.1351C13.3704 17.7284 13.9535 18.1663 14.6308 18.3713C15.3081 18.5763 16.0361 18.5353 16.6861 18.2555C17.3361 17.9757 17.8663 17.4751 18.1829 16.8422C18.4995 16.2093 18.5822 15.4849 18.4164 14.7969C18.2505 14.1089 17.8468 13.5017 17.2766 13.0826C16.7064 12.6635 16.0064 12.4595 15.3003 12.5066C14.5942 12.5537 13.9274 12.8489 13.4179 13.34L8.47793 10.87C8.50819 10.6243 8.50819 10.3757 8.47793 10.13L13.4179 7.66C13.9559 8.18 14.6899 8.5 15.4999 8.5Z" fill="#9CA3AF"/>
</svg>
