<svg width="116" height="33" viewBox="0 0 116 33" fill="none" xmlns="http://www.w3.org/2000/svg">
<path d="M57.9944 11.6083C56.9075 10.7168 55.5242 10.1225 54.0421 10.1225C52.9552 10.1225 51.4731 10.8159 51.4731 12.0045C51.4731 13.2922 53.054 13.7875 54.1409 14.1837L55.623 14.679C58.7848 15.6695 61.255 17.2544 61.255 20.9194C61.255 23.1977 60.761 25.4759 58.8836 27.0608C57.1051 28.5466 54.7337 29.24 52.4612 29.24C49.5958 29.24 46.8292 28.2495 44.4578 26.6646L47.0268 21.91C48.5089 23.1977 50.1886 24.2873 52.2636 24.2873C53.6469 24.2873 55.129 23.5939 55.129 22.009C55.129 20.3251 52.7576 19.7308 51.5719 19.4336C47.9161 18.4431 45.4459 17.4525 45.4459 12.9951C45.4459 8.33952 48.7065 5.36788 53.2516 5.36788C55.5242 5.36788 58.2908 6.06126 60.3657 7.24992L57.9944 11.6083ZM69.0607 3.48585V14.9762H69.1595C70.444 13.2922 71.9261 12.4998 74.0999 12.4998C78.0522 12.4998 79.9295 15.0752 79.9295 19.0374V28.4476H74.4951V20.5232C74.4951 18.7402 74.1987 16.8582 72.0249 16.8582C69.8512 16.8582 69.1595 18.7402 69.1595 20.5232V28.4476H63.7252V3.48585H69.0607ZM99.0981 21.6128H87.5376C87.5376 23.792 88.7233 25.0797 90.9959 25.0797C92.1816 25.0797 92.972 24.6835 93.5649 23.693H98.8016C97.9124 27.358 94.4541 29.0419 90.9959 29.0419C85.8579 29.0419 82.1032 26.1693 82.1032 20.8204C82.1032 15.6695 85.5615 12.5989 90.6006 12.5989C95.9362 12.5989 99.0981 15.8677 99.0981 21.2166V21.6128ZM93.9601 18.4431C93.6637 16.9573 92.3792 15.9667 90.8971 15.9667C89.3162 15.9667 88.0317 16.8582 87.6364 18.4431H93.9601ZM101.272 3.48585H106.706V28.5466H101.272V3.48585ZM109.967 3.48585H115.5V28.5466H109.967V3.48585Z" fill="#DD1D21"/>
<path fill-rule="evenodd" clip-rule="evenodd" d="M18.1001 32.6627C16.8411 32.6627 16.1941 31.8399 16.1941 31.8399C15.1594 31.7948 7.0731 31.8173 7.0731 31.8173L6.28585 25.1573C6.28585 25.1573 1.30531 21.6388 0.900439 21.233C-1.49026 10.3628 7.15101 0 18.1004 0C29.0498 0 37.6911 10.3628 35.3004 21.233C34.8955 21.6388 29.915 25.1573 29.915 25.1573L29.1277 31.8173C29.1277 31.8173 21.0414 31.7948 20.0067 31.8399C20.0067 31.8399 19.3597 32.6627 18.1001 32.6627Z" fill="#ED1C24"/>
<path fill-rule="evenodd" clip-rule="evenodd" d="M18.1118 22.534L17.3477 3.30918C16.4263 3.1207 14.0756 3.34688 12.8156 4.28927L16.4827 22.6094L11.4804 5.04319C10.2813 5.02845 7.86149 7.06061 7.68175 7.66304L14.9782 23.2502L6.77909 9.00124C5.97046 9.3028 4.20275 12.5635 4.48483 12.9424L13.6243 24.1549L4.22156 14.5802C4.22156 14.5802 2.99921 16.4461 3.79634 19.6067L9.10742 23.4508L9.77233 28.7026H16.2839C16.2839 28.7026 17.3492 29.7147 18.1051 29.7147C18.861 29.7147 19.9263 28.7026 19.9263 28.7026H26.4379L27.1028 23.4508L32.4139 19.6067C33.211 16.4461 31.9887 14.5802 31.9887 14.5802L22.586 24.1549L31.7254 12.9424C32.0075 12.5635 30.2398 9.3028 29.4311 9.00124L21.232 23.2502L28.5285 7.66304C28.3487 7.06061 25.9289 5.02845 24.7298 5.04319L19.7276 22.6094L23.3946 4.28927C22.1346 3.34688 19.784 3.1207 18.8625 3.30918L18.1118 22.534Z" fill="#FFD500"/>
</svg>
