<svg width="153" height="20" viewBox="0 0 153 20" fill="none" xmlns="http://www.w3.org/2000/svg">
<path d="M131.031 7.93633V19.9883H134.883V11.9537H148.972V19.9883H152.824V7.93633H131.031ZM134.443 4.02906H149.302C151.393 3.64383 152.879 1.77274 153.319 0.0117188H130.426C130.866 1.77274 132.407 3.5888 134.443 4.02906ZM119.309 19.9883C121.235 19.1629 122.281 17.732 122.721 16.0811H105.386V0.0667508H101.479V19.9883H119.309ZM72.5872 3.97403H86.3452C88.4364 3.36867 90.1424 1.77274 90.5827 0.0667508H68.79V11.8436H86.6204V15.971H72.6423C70.441 16.5764 68.5699 18.0622 67.6343 19.9883H90.4726V7.93633H72.6423L72.5872 3.97403ZM38.6875 4.02906H53.5462C55.6374 3.64383 57.1783 1.77274 57.5635 0.0117188H34.6151C35.0554 1.77274 36.5963 3.5888 38.6875 4.02906ZM38.6875 11.8986H53.5462C55.6374 11.5134 57.1783 9.64233 57.5635 7.8813H34.6151C35.0554 9.64233 36.5963 11.4584 38.6875 11.8986ZM38.6875 19.9883H53.5462C55.6374 19.6031 57.1783 17.732 57.5635 15.971H34.6151C35.0554 17.732 36.5963 19.6031 38.6875 19.9883Z" fill="#5E5E5E"/>
<path d="M0 0.0667508C0.440256 1.82778 1.98115 3.5888 4.01734 4.02906H10.291L10.6212 4.13912V19.9333H14.5285V4.13912L14.8586 4.02906H21.1323C23.2235 3.47874 24.7094 1.82778 25.1496 0.0667508V0.0117188L0 0.0667508Z" fill="#5E5E5E"/>
</svg>
