<svg width="104" height="34" viewBox="0 0 104 34" fill="none" xmlns="http://www.w3.org/2000/svg">
<path fill-rule="evenodd" clip-rule="evenodd" d="M100.744 11.7236L96.6409 7.621H89.019V2.3443H82.5694V26.3796H89.019V14.0682H94.2942V26.3796H100.744V11.7236ZM80.226 7.621H70.2601L66.1563 11.7236V22.2752L70.2601 26.3796H80.226V19.9318H72.6041V14.0682H80.226V7.621ZM63.8114 7.621H58.5362V2.3443H52.0866V22.2752L56.1904 26.3796H63.8114V19.9318H58.5362V14.0682H63.8114V7.621ZM49.7417 2.3443H43.2939V5.2764H49.7417V2.3443ZM49.7417 7.621H43.2939V26.3793H49.7417V7.621ZM40.949 7.621H34.5006V19.9318H32.1563V7.621H25.7076V19.9318H23.3636V7.621H16.914V26.3796H36.8461L40.949 22.2752V7.621ZM14.5691 7.621H9.2936V2.3443H2.8452V22.2752L6.9487 26.3796H14.5691V19.9318H9.2936V14.0682H14.5691V7.621ZM103.087 10.551V28.1373L94.2942 34H88.4324V31.0679L84.3289 34H79.0537V31.0679L76.1234 34H66.7435L63.8114 31.0679L63.2245 34H55.0187L51.663 31.0679L51.475 34H42.1739L41.845 31.0679L39.3272 34H25.1207L22.1892 32.8274V34H14.5691L5.7755 28.7227L0.5 23.4493V0H11.6388L16.914 5.2764H40.949V0H60.8802V5.2764H66.1563V8.2067L69.0884 5.2764H74.9493L80.226 0H91.3639V5.2764H97.8126L103.087 10.551Z" fill="#6441A5"/>
</svg>
