<svg width="14" height="12" viewBox="0 0 14 12" fill="none" xmlns="http://www.w3.org/2000/svg">
<path fill-rule="evenodd" clip-rule="evenodd" d="M7.56775 0.969825C7.71777 0.819848 7.92122 0.735596 8.13335 0.735596C8.34548 0.735596 8.54893 0.819848 8.69895 0.969825L13.4989 5.76982C13.6489 5.91985 13.7332 6.12329 13.7332 6.33542C13.7332 6.54756 13.6489 6.751 13.4989 6.90102L8.69895 11.701C8.54807 11.8468 8.34599 11.9274 8.13623 11.9256C7.92647 11.9237 7.72582 11.8396 7.57749 11.6913C7.42917 11.543 7.34503 11.3423 7.34321 11.1325C7.34139 10.9228 7.42202 10.7207 7.56775 10.5698L11.0021 7.13542H1.73335C1.52118 7.13542 1.31769 7.05114 1.16766 6.90111C1.01764 6.75108 0.93335 6.5476 0.93335 6.33542C0.93335 6.12325 1.01764 5.91977 1.16766 5.76974C1.31769 5.61971 1.52118 5.53542 1.73335 5.53542H11.0021L7.56775 2.10102C7.41777 1.951 7.33352 1.74756 7.33352 1.53542C7.33352 1.32329 7.41777 1.11985 7.56775 0.969825Z" fill="#1C64F2"/>
</svg>
