<svg width="60" height="32" viewBox="0 0 60 32" fill="none" xmlns="http://www.w3.org/2000/svg">
<g clip-path="url(#clip0_292_165)">
<path d="M38.6614 6.66663C34.5195 6.66663 30.8181 8.7869 30.8181 12.7043C30.8181 17.1967 37.3826 17.507 37.3826 19.7639C37.3826 20.7141 36.28 21.5648 34.3967 21.5648C31.7239 21.5648 29.7263 20.3762 29.7263 20.3762L28.8715 24.3293C28.8715 24.3293 31.1727 25.3333 34.228 25.3333C38.7564 25.3333 42.3197 23.1089 42.3197 19.1246C42.3197 14.3775 35.7279 14.0764 35.7279 11.9817C35.7279 11.2372 36.633 10.4215 38.511 10.4215C40.6298 10.4215 42.3585 11.286 42.3585 11.286L43.195 7.46806C43.195 7.46806 41.314 6.66663 38.6614 6.66663ZM0.767065 6.9548L0.666748 7.53109C0.666748 7.53109 2.40927 7.84602 3.97867 8.47433C5.99937 9.19474 6.14337 9.61417 6.48367 10.9168L10.1921 25.0361H15.1635L22.8221 6.9548H17.8622L12.9411 19.2484L10.933 8.82773C10.7488 7.63513 9.81597 6.9548 8.67412 6.9548H0.767065ZM24.8166 6.9548L20.9257 25.0361H25.6554L29.5326 6.95474H24.8166V6.9548ZM51.1956 6.9548C50.0551 6.9548 49.4508 7.55785 49.0074 8.61164L42.0781 25.0361H47.038L47.9976 22.2986H54.0402L54.6237 25.0361H59.0001L55.1821 6.9548H51.1956ZM51.8406 11.8398L53.3108 18.6248H49.372L51.8406 11.8398Z" fill="#1434CB"/>
</g>
<defs>
<clipPath id="clip0_292_165">
<rect width="58.6667" height="32" fill="white" transform="translate(0.666748)"/>
</clipPath>
</defs>
</svg>
